<svg width="152" height="158" viewBox="0 0 152 158" fill="none" xmlns="http://www.w3.org/2000/svg">
<rect x="0.5" y="62.5" width="151" height="95" rx="27.5" fill="url(#paint0_radial_0_32)" stroke="url(#paint1_linear_0_32)"/>
<rect x="34" y="49" width="104" height="100" rx="12" fill="url(#paint2_angular_0_32)"/>
<g filter="url(#filter0_b_0_32)">
<rect x="16" y="12" width="120" height="120" rx="24" fill="url(#paint3_radial_0_32)"/>
<rect x="16.5" y="12.5" width="119" height="119" rx="23.5" stroke="url(#paint4_radial_0_32)"/>
</g>
<rect x="32" y="46" width="24" height="24" fill="white"/>
<rect x="32" y="78" width="24" height="24" fill="white"/>
<rect x="64" y="46" width="24" height="24" fill="white"/>
<rect x="64" y="78" width="24" height="24" fill="white"/>
<rect x="95" y="45" width="26" height="26" rx="13" fill="#FFEB00"/>
<rect x="96" y="78" width="24" height="24" fill="white"/>
<rect x="43" width="14" height="22" rx="7" fill="white"/>
<rect x="95" width="14" height="22" rx="7" fill="white"/>
<defs>
<filter id="filter0_b_0_32" x="2.40859" y="-1.59141" width="147.183" height="147.183" filterUnits="userSpaceOnUse" color-interpolation-filters="sRGB">
<feFlood flood-opacity="0" result="BackgroundImageFix"/>
<feGaussianBlur in="BackgroundImageFix" stdDeviation="6.7957"/>
<feComposite in2="SourceAlpha" operator="in" result="effect1_backgroundBlur_0_32"/>
<feBlend mode="normal" in="SourceGraphic" in2="effect1_backgroundBlur_0_32" result="shape"/>
</filter>
<radialGradient id="paint0_radial_0_32" cx="0" cy="0" r="1" gradientUnits="userSpaceOnUse" gradientTransform="translate(142.776 69.7695) rotate(150.576) scale(129.399 111.448)">
<stop stop-color="#FFD527"/>
<stop offset="1" stop-color="#08C118"/>
</radialGradient>
<linearGradient id="paint1_linear_0_32" x1="109.807" y1="43.4287" x2="40.1877" y2="108.459" gradientUnits="userSpaceOnUse">
<stop stop-color="white" stop-opacity="0.598635"/>
<stop offset="1" stop-color="white" stop-opacity="0.01"/>
</linearGradient>
<radialGradient id="paint2_angular_0_32" cx="0" cy="0" r="1" gradientUnits="userSpaceOnUse" gradientTransform="translate(86 99) scale(52 50)">
<stop stop-color="#00B437" stop-opacity="0.334782"/>
<stop offset="1" stop-color="#FFE013"/>
</radialGradient>
<radialGradient id="paint3_radial_0_32" cx="0" cy="0" r="1" gradientUnits="userSpaceOnUse" gradientTransform="translate(128.327 18.4757) rotate(126.776) scale(114.272)">
<stop stop-color="white" stop-opacity="0.700689"/>
<stop offset="1" stop-color="#F8FFF8" stop-opacity="0.246825"/>
</radialGradient>
<radialGradient id="paint4_radial_0_32" cx="0" cy="0" r="1" gradientUnits="userSpaceOnUse" gradientTransform="translate(128.129 23.1621) rotate(124.151) scale(100.527 96.7871)">
<stop stop-color="white"/>
<stop offset="1" stop-color="white" stop-opacity="0.01"/>
</radialGradient>
</defs>
</svg>
