<svg width="172" height="145" viewBox="0 0 172 145" fill="none" xmlns="http://www.w3.org/2000/svg">
<rect x="36.5" y="29.5" width="135" height="115" rx="23.5" fill="url(#paint0_radial_105_957)" stroke="url(#paint1_linear_105_957)"/>
<circle cx="99.4436" cy="54.5563" r="8" transform="rotate(-45 99.4436 54.5563)" fill="white"/>
<rect x="102.272" y="40.4142" width="56" height="16" rx="8" transform="rotate(-45 102.272 40.4142)" fill="white"/>
<rect x="42" y="35" width="30" height="104" rx="15" fill="url(#paint2_linear_105_957)"/>
<g filter="url(#filter0_b_105_957)">
<path fill-rule="evenodd" clip-rule="evenodd" d="M0 50.9906C0 46.5723 3.58172 43 8 43H56V131C56 131 32.7947 131 21.8631 131C10.9316 131 19.9768 121.105 19.9768 121.105C19.9768 121.105 0 113.537 0 90.448C0 75.5157 0 60.0526 0 50.9906Z" fill="url(#paint3_radial_105_957)"/>
<path d="M20.3459 121.442L20.346 121.442L20.843 120.898L20.1542 120.637L20.1539 120.637L20.1521 120.636L20.1432 120.633L20.1042 120.618C20.069 120.604 20.0155 120.582 19.945 120.553C19.8041 120.494 19.5951 120.404 19.3279 120.28C18.7933 120.034 18.026 119.655 17.1035 119.127C15.2577 118.073 12.7955 116.428 10.3341 114.074C5.41745 109.37 0.5 101.83 0.5 90.448V90.3605V90.273V90.1854V90.0979V90.0104V89.9228V89.8352V89.7477V89.6601V89.5725V89.4849V89.3973V89.3096V89.222V89.1344V89.0467V88.9591V88.8714V88.7838V88.6961V88.6084V88.5207V88.433V88.3453V88.2576V88.1699V88.0822V87.9945V87.9068V87.8191V87.7314V87.6437V87.5559V87.4682V87.3805V87.2927V87.205V87.1173V87.0295V86.9418V86.8541V86.7664V86.6786V86.5909V86.5032V86.4154V86.3277V86.24V86.1523V86.0646V85.9769V85.8891V85.8014V85.7137V85.626V85.5384V85.4507V85.363V85.2753V85.1876V85.1V85.0123V84.9247V84.837V84.7494V84.6618V84.5742V84.4866V84.399V84.3114V84.2238V84.1362V84.0487V83.9611V83.8736V83.786V83.6985V83.611V83.5235V83.4361V83.3486V83.2611V83.1737V83.0863V82.9988V82.9114V82.8241V82.7367V82.6493V82.562V82.4747V82.3874V82.3001V82.2128V82.1255V82.0383V81.9511V81.8639V81.7767V81.6895V81.6024V81.5152V81.4281V81.341V81.254V81.1669V81.0799V80.9929V80.9059V80.8189V80.732V80.645V80.5581V80.4713V80.3844V80.2976V80.2108V80.124V80.0372V79.9505V79.8638V79.7771V79.6905V79.6038V79.5172V79.4306V79.3441V79.2576V79.1711V79.0846V78.9982V78.9118V78.8254V78.739V78.6527V78.5664V78.4801V78.3939V78.3077V78.2215V78.1354V78.0493V77.9632V77.8771V77.7911V77.7051V77.6192V77.5333V77.4474V77.3616V77.2757V77.19V77.1042V77.0185V76.9328V76.8472V76.7616V76.676V76.5905V76.505V76.4196V76.3342V76.2488V76.1634V76.0781V75.9929V75.9077V75.8225V75.7373V75.6522V75.5672V75.4821V75.3972V75.3122V75.2273V75.1425V75.0577V74.9729V74.8882V74.8035V74.7189V74.6343V74.5497V74.4652V74.3807V74.2963V74.212V74.1276V74.0434V73.9591V73.8749V73.7908V73.7067V73.6227V73.5387V73.4547V73.3708V73.287V73.2032V73.1194V73.0357V72.9521V72.8685V72.7849V72.7014V72.618V72.5346V72.4512V72.3679V72.2847V72.2015V72.1184V72.0353V71.9523V71.8693V71.7864V71.7035V71.6207V71.538V71.4553V71.3726V71.2901V71.2075V71.1251V71.0426V70.9603V70.878V70.7958V70.7136V70.6315V70.5494V70.4674V70.3854V70.3036V70.2217V70.14V70.0583V69.9766V69.8951V69.8135V69.7321V69.6507V69.5694V69.4881V69.4069V69.3258V69.2447V69.1637V69.0827V69.0019V68.921V68.8403V68.7596V68.679V68.5984V68.518V68.4375V68.3572V68.2769V68.1967V68.1165V68.0365V67.9565V67.8765V67.7967V67.7169V67.6371V67.5575V67.4779V67.3984V67.3189V67.2396V67.1603V67.081V67.0019V66.9228V66.8438V66.7649V66.686V66.6072V66.5285V66.4499V66.3713V66.2928V66.2144V66.1361V66.0578V65.9796V65.9015V65.8235V65.7456V65.6677V65.5899V65.5122V65.4346V65.357V65.2795V65.2021V65.1248V65.0476V64.9704V64.8934V64.8164V64.7395V64.6626V64.5859V64.5092V64.4326V64.3561V64.2797V64.2034V64.1272V64.051V63.9749V63.8989V63.823V63.7472V63.6715V63.5958V63.5203V63.4448V63.3694V63.2941V63.2189V63.1438V63.0688V62.9938V62.919V62.8442V62.7695V62.6949V62.6204V62.546V62.4717V62.3975V62.3234V62.2493V62.1754V62.1015V62.0278V61.9541V61.8805V61.807V61.7337V61.6604V61.5872V61.5141V61.4411V61.3682V61.2953V61.2226V61.15V61.0775V61.0051V60.9327V60.8605V60.7884V60.7163V60.6444V60.5725V60.5008V60.4292V60.3576V60.2862V60.2149V60.1436V60.0725V60.0015V59.9305V59.8597V59.7183V59.5774V59.5071V59.4369V59.2968V59.1571V59.0178V58.879V58.7406V58.6026V58.465V58.3279V58.2595V58.1913V58.055V57.9192V57.8515V57.7839V57.649V57.5145V57.3805V57.247V57.1139V56.9813V56.8491V56.7174V56.5861V56.4554V56.3251V56.1953V56.0659V55.9371V55.8087V55.6808V55.5534V55.4265V55.3V55.1741V55.0486V54.9237V54.7993V54.6753V54.5519V54.429V54.3066V54.1847V54.0633V53.9425V53.7023V53.4643V53.3461V53.2284V52.9946V52.763V52.5336V52.3064V52.0814V51.9698V51.9141V51.8587V51.6382V51.5834V51.5288V51.42V50.9906C0.5 46.8492 3.8571 43.5 8 43.5H55.5V130.5H55.4863H55.4638H55.4408H55.4174H55.3935H55.3691H55.3443H55.3191H55.2934H55.2672H55.2407H55.2136H55.1861H55.1582H55.1299H55.1011H55.0718H55.0422H55.0121H54.9815H54.9506H54.9192H54.8874H54.8551H54.8225H54.7894H54.7559H54.722H54.6876H54.6529H54.6177H54.5821H54.5462H54.5098H54.4729H54.4357H54.3981H54.3601H54.3217H54.2829H54.2436H54.204H54.164H54.1236H54.0828H54.0416H54.0001H53.9581H53.9158H53.873H53.8299H53.7864H53.7426H53.6983H53.6537H53.6087H53.5633H53.5176H53.4715H53.425H53.3782H53.331H53.2834H53.2355H53.1872H53.1385H53.0895H53.0401H52.9904H52.9404H52.8899H52.8392H52.7881H52.7366H52.6848H52.6327H52.5802H52.5273H52.4742H52.4207H52.3669H52.3127H52.2582H52.2034H52.1482H52.0927H52.0369H51.9808H51.9243H51.8676H51.8105H51.7531H51.6953H51.6373H51.579H51.5203H51.4613H51.4021H51.3425H51.2826H51.2224H51.1619H51.1011H51.04H50.9786H50.917H50.855H50.7927H50.7302H50.6673H50.6042H50.5408H50.4771H50.4131H50.3488H50.2843H50.2195H50.1544H50.089H50.0234H49.9575H49.8913H49.8248H49.7581H49.6911H49.6239H49.5564H49.4886H49.4206H49.3523H49.2838H49.215H49.146H49.0767H49.0071H48.9374H48.8673H48.797H48.7265H48.6558H48.5848H48.5135H48.4421H48.3704H48.2984H48.2262H48.1538H48.0812H48.0084H47.9353H47.862H47.7884H47.7147H47.6407H47.5666H47.4922H47.4175H47.3427H47.2677H47.1924H47.117H47.0413H46.9655H46.8894H46.8131H46.7367H46.66H46.5832H46.5061H46.4289H46.3514H46.2738H46.196H46.118H46.0398H45.9614H45.8828H45.8041H45.7252H45.6461H45.5668H45.4874H45.4078H45.328H45.248H45.1679H45.0876H45.0071H44.9265H44.8457H44.7648H44.6837H44.6024H44.521H44.4395H44.3577H44.2759H44.1939H44.1117H44.0294H43.9469H43.8643H43.7816H43.6987H43.6157H43.5326H43.4493H43.3659H43.2823H43.1986H43.1148H43.0309H42.9468H42.8626H42.7783H42.6939H42.6094H42.5247H42.4399H42.355H42.27H42.1849H42.0997H42.0144H41.9289H41.8434H41.7577H41.672H41.5862H41.5002H41.4142H41.328H41.2418H41.1555H41.0691H40.9826H40.896H40.8093H40.7226H40.6357H40.5488H40.4618H40.3747H40.2876H40.2004H40.1131H40.0257H39.9382H39.8507H39.7632H39.6755H39.5878H39.5001H39.4122H39.3244H39.2364H39.1484H39.0604H38.9723H38.8841H38.7959H38.7077H38.6194H38.5311H38.4427H38.3543H38.2658H38.1773H38.0888H38.0002H37.9116H37.823H37.7343H37.6456H37.5569H37.4681H37.3794H37.2906H37.2018H37.1129H37.0241H36.9352H36.8464H36.7575H36.6686H36.5797H36.4907H36.4018H36.3129H36.224H36.135H36.0461H35.9572H35.8683H35.7793H35.6904H35.6015H35.5126H35.4237H35.3349H35.246H35.1572H35.0683H34.9795H34.8907H34.802H34.7132H34.6245H34.5359H34.4472H34.3586H34.27H34.1814H34.0929H34.0044H33.916H33.8275H33.7392H33.6508H33.5626H33.4743H33.3861H33.298H33.2099H33.1219H33.0339H32.946H32.8581H32.7703H32.6826H32.5949H32.5072H32.4197H32.3322H32.2448H32.1574H32.0701H31.9829H31.8958H31.8087H31.7218H31.6349H31.548H31.4613H31.3747H31.2881H31.2016H31.1152H31.0289H30.9427H30.8566H30.7706H30.6847H30.5989H30.5131H30.4275H30.342H30.2566H30.1713H30.0861H30.001H29.916H29.8312H29.7464H29.6618H29.5773H29.4929H29.4086H29.3244H29.2404H29.1565H29.0727H28.9891H28.9056H28.8222H28.7389H28.6558H28.5728H28.49H28.4073H28.3247H28.2423H28.16H28.0779H27.9959H27.9141H27.8324H27.7509H27.6695H27.5883H27.5072H27.4263H27.3456H27.265H27.1846H27.1043H27.0243H26.9443H26.8646H26.785H26.7056H26.6264H26.5473H26.4685H26.3898H26.3113H26.2329H26.1548H26.0768H25.9991H25.9215H25.8441H25.7669H25.6899H25.6131H25.5365H25.46H25.3838H25.3078H25.232H25.1564H25.081H25.0058H24.9308H24.856H24.7815H24.7071H24.633H24.5591H24.4854H24.4119H24.3387H24.2657H24.1929H24.1203H24.0479H23.9758H23.9039H23.8323H23.7609H23.6897H23.6188H23.5481H23.4776H23.4074H23.3374H23.2677H23.1982H23.129H23.06H22.9913H22.9228H22.8546H22.7866H22.7189H22.6515H22.5843H22.5174H22.4508H22.3844H22.3183H22.2524H22.1868H22.1215H22.0565H21.9918H21.9273H21.8631C19.1704 130.5 17.8997 129.885 17.358 129.156C16.8233 128.436 16.86 127.413 17.2908 126.222C17.7145 125.051 18.4714 123.859 19.1381 122.946C19.4691 122.492 19.7728 122.114 19.9933 121.85C20.1034 121.718 20.1926 121.615 20.2538 121.546C20.2843 121.511 20.3079 121.484 20.3235 121.467L20.341 121.447L20.345 121.443L20.3459 121.442Z" stroke="url(#paint4_radial_105_957)"/>
</g>
<g filter="url(#filter1_b_105_957)">
<path fill-rule="evenodd" clip-rule="evenodd" d="M64 43H56V130H64V43Z" fill="#E7F6FF" fill-opacity="0.39968"/>
</g>
<defs>
<filter id="filter0_b_105_957" x="-13.5914" y="29.4086" width="83.1828" height="115.183" filterUnits="userSpaceOnUse" color-interpolation-filters="sRGB">
<feFlood flood-opacity="0" result="BackgroundImageFix"/>
<feGaussianBlur in="BackgroundImageFix" stdDeviation="6.7957"/>
<feComposite in2="SourceAlpha" operator="in" result="effect1_backgroundBlur_105_957"/>
<feBlend mode="normal" in="SourceGraphic" in2="effect1_backgroundBlur_105_957" result="shape"/>
</filter>
<filter id="filter1_b_105_957" x="42.4086" y="29.4086" width="35.1828" height="114.183" filterUnits="userSpaceOnUse" color-interpolation-filters="sRGB">
<feFlood flood-opacity="0" result="BackgroundImageFix"/>
<feGaussianBlur in="BackgroundImageFix" stdDeviation="6.7957"/>
<feComposite in2="SourceAlpha" operator="in" result="effect1_backgroundBlur_105_957"/>
<feBlend mode="normal" in="SourceGraphic" in2="effect1_backgroundBlur_105_957" result="shape"/>
</filter>
<radialGradient id="paint0_radial_105_957" cx="0" cy="0" r="1" gradientUnits="userSpaceOnUse" gradientTransform="translate(62.7819 46.2682) rotate(47.7858) scale(100.322 102.707)">
<stop stop-color="#46FF7E"/>
<stop offset="1" stop-color="#2D62FF"/>
</radialGradient>
<linearGradient id="paint1_linear_105_957" x1="11.9727" y1="60.1452" x2="63.3491" y2="133.993" gradientUnits="userSpaceOnUse">
<stop stop-color="white" stop-opacity="0.600574"/>
<stop offset="1" stop-color="white" stop-opacity="0.01"/>
</linearGradient>
<linearGradient id="paint2_linear_105_957" x1="57" y1="35" x2="57" y2="139" gradientUnits="userSpaceOnUse">
<stop stop-color="#00B258"/>
<stop offset="1" stop-color="#0062D3"/>
</linearGradient>
<radialGradient id="paint3_radial_105_957" cx="0" cy="0" r="1" gradientUnits="userSpaceOnUse" gradientTransform="translate(6.12213 43) rotate(61.3698) scale(89.7168 76.353)">
<stop stop-color="#CCE4FF" stop-opacity="0.849615"/>
<stop offset="1" stop-color="#087AFF" stop-opacity="0.30067"/>
</radialGradient>
<radialGradient id="paint4_radial_105_957" cx="0" cy="0" r="1" gradientUnits="userSpaceOnUse" gradientTransform="translate(3.98613 49.2286) scale(42.07 177.11)">
<stop stop-color="white" stop-opacity="0.968875"/>
<stop offset="1" stop-color="white" stop-opacity="0.01"/>
</radialGradient>
</defs>
</svg>
