<svg width="191" height="160" viewBox="0 0 191 160" fill="none" xmlns="http://www.w3.org/2000/svg">
<rect x="47.5" y="0.5" width="143" height="105" rx="23.5" fill="url(#paint0_radial_0_89)" stroke="url(#paint1_linear_0_89)"/>
<rect x="47" y="22" width="144" height="20" fill="white" fill-opacity="0.545205"/>
<g filter="url(#filter0_b_0_89)">
<rect x="15" y="32" width="144" height="106" rx="24" fill="url(#paint2_radial_0_89)"/>
<rect x="15.5" y="32.5" width="143" height="105" rx="23.5" stroke="url(#paint3_radial_0_89)"/>
</g>
<path d="M50.736 75.472C50.52 75.472 50.316 75.496 50.124 75.544C49.932 75.568 49.74 75.58 49.548 75.58C49.284 75.58 49.032 75.46 48.792 75.22C48.576 74.98 48.468 74.764 48.468 74.572C48.468 73.948 48.78 73.468 49.404 73.132C50.028 72.772 50.664 72.592 51.312 72.592C51.864 72.592 52.428 72.784 53.004 73.168C53.604 73.528 54.048 73.996 54.336 74.572C54.96 73.828 55.728 73.288 56.64 72.952C57.552 72.616 58.5 72.448 59.484 72.448C60.588 72.448 61.608 72.796 62.544 73.492C63.504 74.188 64.26 75.076 64.812 76.156C65.364 77.212 65.64 78.268 65.64 79.324C65.64 80.356 65.532 81.28 65.316 82.096C65.1 82.888 64.716 83.692 64.164 84.508C63.54 85.372 62.7 86.08 61.644 86.632C60.612 87.184 59.376 87.46 57.936 87.46C57.552 87.46 57.084 87.364 56.532 87.172C55.98 86.956 55.524 86.728 55.164 86.488C54.996 88.12 54.912 89.536 54.912 90.736C54.912 91.456 54.948 92.14 55.02 92.788C55.068 93.556 55.092 94.108 55.092 94.444C55.092 94.972 54.912 95.356 54.552 95.596C54.192 95.86 53.796 95.992 53.364 95.992C52.5 95.992 51.924 95.752 51.636 95.272C51.372 94.816 51.24 94.156 51.24 93.292C51.336 91.228 51.456 89.32 51.6 87.568C51.744 85.408 51.816 82.072 51.816 77.56C51.816 77.128 51.732 76.672 51.564 76.192C51.396 75.712 51.12 75.472 50.736 75.472ZM55.308 82.924C55.428 83.38 55.764 83.764 56.316 84.076C56.892 84.364 57.408 84.508 57.864 84.508C59.232 84.508 60.252 84.136 60.924 83.392C61.428 82.864 61.752 82.348 61.896 81.844C62.064 81.34 62.148 80.536 62.148 79.432C62.148 78.568 61.98 77.848 61.644 77.272C61.308 76.672 60.9 76.24 60.42 75.976C59.94 75.688 59.484 75.544 59.052 75.544C58.068 75.544 57.264 75.844 56.64 76.444C56.04 77.02 55.656 77.812 55.488 78.82C55.368 79.612 55.308 80.98 55.308 82.924ZM69.1067 75.364C68.4827 74.932 68.1707 74.476 68.1707 73.996C68.1707 73.66 68.3147 73.348 68.6027 73.06C68.8907 72.772 69.3227 72.628 69.8987 72.628C70.5707 72.628 71.1707 72.808 71.6987 73.168C72.2507 73.504 72.6347 73.996 72.8507 74.644C73.4027 73.996 74.0267 73.48 74.7227 73.096C75.4427 72.712 76.1747 72.52 76.9187 72.52C77.8067 72.52 78.6107 72.76 79.3307 73.24C80.0507 73.72 80.4107 74.368 80.4107 75.184C80.4107 75.64 80.2067 76.108 79.7987 76.588C79.4147 77.068 79.0187 77.308 78.6107 77.308C78.3947 77.308 78.2027 77.26 78.0347 77.164C77.8907 77.044 77.7107 76.876 77.4947 76.66C77.2547 76.42 77.0507 76.252 76.8827 76.156C76.7147 76.036 76.5227 75.976 76.3067 75.976C75.9227 75.976 75.5627 76.036 75.2267 76.156C74.8907 76.276 74.6627 76.42 74.5427 76.588C74.1587 77.188 73.8707 77.728 73.6787 78.208C73.5107 78.688 73.4267 79.204 73.4267 79.756C73.4267 80.164 73.4147 80.488 73.3907 80.728L73.3547 82.78C73.3547 83.092 73.3667 83.44 73.3907 83.824C73.4147 84.208 73.4387 84.496 73.4627 84.688C73.5347 85.336 73.5707 85.96 73.5707 86.56C73.5707 86.968 73.4147 87.328 73.1027 87.64C72.7907 87.952 72.4067 88.108 71.9507 88.108C71.2307 88.108 70.7027 87.976 70.3667 87.712C70.0307 87.424 69.8627 86.908 69.8627 86.164L69.8267 83.86C69.8027 83.404 69.7907 82.756 69.7907 81.916L69.8267 79.54C69.8747 78.388 69.8987 77.452 69.8987 76.732C69.8987 76.468 69.8387 76.228 69.7187 76.012C69.6227 75.796 69.4187 75.58 69.1067 75.364ZM84.369 64.888C85.209 64.96 85.941 65.188 86.565 65.572C87.189 65.932 87.501 66.484 87.501 67.228C87.501 67.78 87.237 68.224 86.709 68.56C86.205 68.872 85.593 69.028 84.873 69.028C84.177 69.028 83.697 68.848 83.433 68.488C83.169 68.128 83.037 67.756 83.037 67.372C83.037 66.652 83.109 66.052 83.253 65.572C83.421 65.092 83.793 64.864 84.369 64.888ZM87.249 80.836V81.88C87.249 82.816 87.273 83.704 87.321 84.544C87.393 85.36 87.477 86.188 87.573 87.028C87.549 87.268 87.369 87.52 87.033 87.784C86.697 88.024 86.397 88.144 86.133 88.144C85.677 88.144 85.209 88.06 84.729 87.892C84.273 87.7 83.997 87.472 83.901 87.208C83.757 86.44 83.685 85.756 83.685 85.156C83.685 83.188 83.625 80.98 83.505 78.532C83.409 76.372 83.361 74.86 83.361 73.996C83.361 73.564 83.577 73.192 84.009 72.88C84.441 72.568 84.897 72.412 85.377 72.412C86.073 72.412 86.553 72.568 86.817 72.88C87.105 73.192 87.249 73.684 87.249 74.356V80.836ZM104.668 75.976C104.668 76.48 104.56 76.864 104.344 77.128C104.152 77.392 103.828 77.524 103.372 77.524C103.036 77.524 102.748 77.44 102.508 77.272C102.292 77.104 102.004 76.816 101.644 76.408C101.356 76.096 101.02 75.844 100.636 75.652C100.276 75.46 99.9519 75.364 99.6639 75.364C98.1999 75.364 97.1439 75.676 96.4959 76.3C96.0879 76.732 95.7519 77.308 95.4879 78.028C95.2239 78.724 95.0919 79.444 95.0919 80.188C95.0919 81.268 95.2479 82.132 95.5599 82.78C95.8719 83.428 96.4239 83.98 97.2159 84.436C97.5039 84.604 97.9119 84.748 98.4399 84.868C98.9679 84.964 99.3999 85.012 99.7359 85.012C100.192 85.012 100.672 84.892 101.176 84.652C101.68 84.388 102.112 84.052 102.472 83.644C102.928 83.116 103.48 82.852 104.128 82.852C104.392 82.852 104.692 82.984 105.028 83.248C105.388 83.512 105.568 83.824 105.568 84.184C105.568 84.904 105.22 85.576 104.524 86.2C103.852 86.8 103.024 87.28 102.04 87.64C101.056 87.976 100.144 88.144 99.3039 88.144C97.8879 88.144 96.5679 87.82 95.3439 87.172C94.1439 86.524 93.1839 85.636 92.4639 84.508C91.7439 83.356 91.3839 82.06 91.3839 80.62C91.3839 79.372 91.6119 78.16 92.0679 76.984C92.5479 75.808 93.1839 74.848 93.9759 74.104C94.6239 73.504 95.4279 73.06 96.3879 72.772C97.3479 72.484 98.3559 72.34 99.4119 72.34C100.156 72.34 100.924 72.484 101.716 72.772C102.508 73.06 103.144 73.444 103.624 73.924C104.32 74.62 104.668 75.304 104.668 75.976ZM108.259 79.756C108.259 78.292 108.583 77.08 109.231 76.12C109.879 75.136 110.779 74.212 111.931 73.348C112.267 73.108 112.831 72.904 113.623 72.736C114.415 72.544 115.111 72.448 115.711 72.448C116.431 72.448 117.187 72.604 117.979 72.916C118.795 73.204 119.455 73.54 119.959 73.924C120.847 74.572 121.459 75.328 121.795 76.192C122.131 77.032 122.299 78.04 122.299 79.216C122.299 79.72 122.011 80.212 121.435 80.692C120.883 81.148 120.283 81.376 119.635 81.376L118.267 81.34C117.571 81.34 116.575 81.364 115.279 81.412L114.523 81.448C113.995 81.496 113.599 81.52 113.335 81.52C112.951 81.52 112.423 81.472 111.751 81.376C111.847 82.504 112.267 83.392 113.011 84.04C113.755 84.664 114.559 84.976 115.423 84.976C116.935 84.976 117.991 84.676 118.591 84.076C119.095 83.716 119.431 83.488 119.599 83.392C119.767 83.296 120.031 83.248 120.391 83.248C120.775 83.248 121.111 83.428 121.399 83.788C121.687 84.148 121.831 84.508 121.831 84.868C121.831 85.276 121.579 85.696 121.075 86.128C120.595 86.536 119.935 86.968 119.095 87.424C118.639 87.616 118.015 87.784 117.223 87.928C116.431 88.072 115.771 88.144 115.243 88.144C114.403 88.144 113.467 87.904 112.435 87.424C111.403 86.92 110.635 86.368 110.131 85.768C109.627 85.168 109.183 84.316 108.799 83.212C108.439 82.108 108.259 80.956 108.259 79.756ZM115.423 78.784C117.127 78.784 118.375 78.724 119.167 78.604C119.119 77.908 118.903 77.344 118.519 76.912C118.135 76.456 117.607 76.072 116.935 75.76C116.719 75.664 116.527 75.592 116.359 75.544C116.191 75.496 115.999 75.472 115.783 75.472C114.679 75.472 113.743 75.772 112.975 76.372C112.231 76.972 111.787 77.74 111.643 78.676C112.843 78.748 114.103 78.784 115.423 78.784Z" fill="#FFCD27"/>
<path fill-rule="evenodd" clip-rule="evenodd" d="M26.7284 143.753C25.1613 138.754 21.246 134.839 16.2467 133.272L9 131L16.2467 128.728C21.246 127.161 25.1613 123.246 26.7284 118.247L29 111L31.2716 118.247C32.8387 123.246 36.754 127.161 41.7533 128.728L49 131L41.7533 133.272C36.754 134.839 32.8387 138.754 31.2716 143.753L29 151L26.7284 143.753Z" fill="white"/>
<defs>
<filter id="filter0_b_0_89" x="1.40859" y="18.4086" width="171.183" height="133.183" filterUnits="userSpaceOnUse" color-interpolation-filters="sRGB">
<feFlood flood-opacity="0" result="BackgroundImageFix"/>
<feGaussianBlur in="BackgroundImageFix" stdDeviation="6.7957"/>
<feComposite in2="SourceAlpha" operator="in" result="effect1_backgroundBlur_0_89"/>
<feBlend mode="normal" in="SourceGraphic" in2="effect1_backgroundBlur_0_89" result="shape"/>
</filter>
<radialGradient id="paint0_radial_0_89" cx="0" cy="0" r="1" gradientUnits="userSpaceOnUse" gradientTransform="translate(182.262 8.57877) rotate(146.68) scale(127.78 118.057)">
<stop stop-color="#FFD527"/>
<stop offset="1" stop-color="#08C118"/>
</radialGradient>
<linearGradient id="paint1_linear_0_89" x1="151.028" y1="-20.5058" x2="75.8273" y2="39.7629" gradientUnits="userSpaceOnUse">
<stop stop-color="white" stop-opacity="0.598635"/>
<stop offset="1" stop-color="white" stop-opacity="0.01"/>
</linearGradient>
<radialGradient id="paint2_radial_0_89" cx="0" cy="0" r="1" gradientUnits="userSpaceOnUse" gradientTransform="translate(149.792 37.7202) rotate(135.438) scale(115.225 120.127)">
<stop stop-color="white" stop-opacity="0.700689"/>
<stop offset="1" stop-color="#5FE866" stop-opacity="0.254405"/>
</radialGradient>
<radialGradient id="paint3_radial_0_89" cx="0" cy="0" r="1" gradientUnits="userSpaceOnUse" gradientTransform="translate(149.555 41.8599) rotate(132.661) scale(99.931 103.206)">
<stop stop-color="white"/>
<stop offset="1" stop-color="white" stop-opacity="0.01"/>
</radialGradient>
</defs>
</svg>
