<svg width="227" height="223" viewBox="0 0 227 223" fill="none" xmlns="http://www.w3.org/2000/svg">
<path d="M41.1572 168.405L92.2597 45.5287L177.149 130.418L54.273 181.52C50.5215 183.081 46.1994 182.224 43.3265 179.351C40.4535 176.478 39.597 172.156 41.1572 168.405Z" fill="url(#paint0_radial_0_101)" stroke="url(#paint1_linear_0_101)"/>
<g filter="url(#filter0_b_0_101)">
<path fill-rule="evenodd" clip-rule="evenodd" d="M122.78 99.8977C146.513 123.631 171.25 137.374 178.031 130.593C183.32 125.303 176.123 109.09 161.437 90.9495L160.293 89.5504C158.747 87.6803 157.125 85.7924 155.43 83.8963L154.146 82.4728C151.983 80.0984 149.709 77.715 147.336 75.3417C144.962 72.9684 142.579 70.6949 140.205 68.532L138.781 67.2475C136.885 65.5528 134.997 63.9301 133.127 62.3849L131.728 61.2405C113.587 46.555 97.3741 39.3576 92.0849 44.6467C85.304 51.4277 99.0466 76.1644 122.78 99.8977Z" fill="url(#paint2_radial_0_101)"/>
<path d="M177.677 130.239C176.161 131.755 173.561 132.199 169.97 131.504C166.399 130.812 161.982 129.016 157.005 126.251C147.058 120.725 134.977 111.387 123.133 99.5441C111.29 87.7007 101.953 75.6197 96.4266 65.6722C93.6617 60.6954 91.8652 56.2783 91.1737 52.7078C90.4782 49.1167 90.9227 46.5161 92.4385 45.0003C93.6201 43.8187 95.4575 43.2864 97.9281 43.442C100.397 43.5975 103.427 44.4377 106.891 45.9132C113.815 48.8622 122.363 54.3024 131.413 61.6285C131.413 61.6287 131.413 61.6289 131.413 61.6291L132.809 62.7703C132.809 62.7706 132.809 62.7708 132.81 62.7711C134.674 64.3117 136.557 65.9297 138.447 67.6198C138.448 67.6199 138.448 67.6201 138.448 67.6203L139.868 68.9016C139.868 68.9018 139.868 68.9021 139.869 68.9023C142.237 71.0598 144.615 73.3276 146.982 75.6953C149.35 78.0627 151.617 80.4401 153.775 82.8084C153.775 82.8088 153.776 82.8091 153.776 82.8095L155.057 84.2295C155.058 84.2299 155.058 84.2303 155.058 84.2308C156.748 86.1214 158.366 88.0037 159.906 89.8679C159.907 89.8683 159.907 89.8686 159.907 89.8689L161.048 91.2641C161.048 91.2642 161.049 91.2643 161.049 91.2644C168.375 100.314 173.815 108.862 176.764 115.786C178.24 119.25 179.08 122.281 179.235 124.749C179.391 127.22 178.859 129.057 177.677 130.239Z" stroke="url(#paint3_radial_0_101)"/>
</g>
<path fill-rule="evenodd" clip-rule="evenodd" d="M221.039 34.6511L198.629 35.588L211.484 58.8933L221.039 34.6511Z" fill="#FFDAFE"/>
<path fill-rule="evenodd" clip-rule="evenodd" d="M120.477 5.54569L108.253 33.6514L131.081 32.7835L120.477 5.54569Z" fill="#5B72F2"/>
<circle cx="169.799" cy="11.627" r="7.59661" transform="rotate(45 169.799 11.627)" fill="#3CC61C"/>
<circle cx="167.552" cy="107.154" r="7.59661" transform="rotate(45 167.552 107.154)" fill="#3CC61C"/>
<path fill-rule="evenodd" clip-rule="evenodd" d="M143.519 47.5795C141.18 46.2423 140.366 43.2637 141.7 40.9228V40.9228C143.036 38.5768 146.023 37.7606 148.367 39.1009L148.994 39.4595L150.027 40.0666L151.008 40.6534L151.954 41.2298C158.582 45.3127 163.219 49.1003 166.253 53.5475L166.481 53.8885L166.585 54.0488L166.858 54.0036C176.729 52.4126 184.643 55.8812 190.065 63.4497L190.317 63.8075C193.302 68.1069 195.808 77.9213 197.132 83.9024C197.728 86.5968 195.888 89.1749 193.159 89.5874V89.5874C190.521 89.9863 188.044 88.2019 187.497 85.5905C186.422 80.4555 184.497 72.5512 182.294 69.3779C179.326 65.103 175.493 63.014 170.14 63.4254L169.689 63.4657L169.694 63.5696C169.781 66.6735 169.004 69.8624 167.297 73.0746L167.088 73.4602L166.546 74.4196C159.84 86.0797 152.163 91.3337 144.603 89.4215C137.98 87.7464 133.703 80.5166 134.722 74.0793C136.087 65.4664 142.207 60.3367 151.216 57.5239C151.424 57.4588 151.648 57.3925 151.886 57.3253L152.633 57.1216C152.893 57.0532 153.163 56.9844 153.441 56.9155L154.293 56.7093L155.175 56.5056L155.926 56.338L155.905 56.3164C153.841 54.2568 150.965 52.1197 147.262 49.8129L146.831 49.546L145.953 49.0106L145.035 48.4619L144.063 47.8905L143.519 47.5795ZM159.727 65.6074L159.741 65.5205L157.871 65.9196L156.779 66.1641L155.766 66.4041L155.153 66.5587L154.603 66.707L154.127 66.8474C148.287 68.6709 145.037 71.3945 144.37 75.6074C144.11 77.2469 145.484 79.5699 146.998 79.9528C148.734 80.3918 151.308 79.0586 154.405 75.114L154.84 74.5466C154.913 74.4491 154.987 74.3503 155.06 74.25L155.506 73.6307C155.73 73.3124 155.957 72.9808 156.185 72.6358L156.646 71.9277C156.723 71.8067 156.801 71.6841 156.879 71.56L157.348 70.7971L157.823 69.9969C157.903 69.8605 157.983 69.7224 158.063 69.5828L158.545 68.7259C159.135 67.6627 159.529 66.627 159.727 65.6074Z" fill="white"/>
<defs>
<filter id="filter0_b_0_101" x="76.7624" y="29.3242" width="116.591" height="116.591" filterUnits="userSpaceOnUse" color-interpolation-filters="sRGB">
<feFlood flood-opacity="0" result="BackgroundImageFix"/>
<feGaussianBlur in="BackgroundImageFix" stdDeviation="6.7957"/>
<feComposite in2="SourceAlpha" operator="in" result="effect1_backgroundBlur_0_101"/>
<feBlend mode="normal" in="SourceGraphic" in2="effect1_backgroundBlur_0_101" result="shape"/>
</filter>
<radialGradient id="paint0_radial_0_101" cx="0" cy="0" r="1" gradientUnits="userSpaceOnUse" gradientTransform="translate(90.537 59.9468) rotate(49.4017) scale(112.153 120.072)">
<stop offset="0.260417" stop-color="#FDE537"/>
<stop offset="1" stop-color="#CD23F7"/>
</radialGradient>
<linearGradient id="paint1_linear_0_101" x1="39.2238" y1="63.995" x2="55.5449" y2="160.416" gradientUnits="userSpaceOnUse">
<stop stop-color="white" stop-opacity="0.29535"/>
<stop offset="1" stop-color="white" stop-opacity="0.01"/>
</linearGradient>
<radialGradient id="paint2_radial_0_101" cx="0" cy="0" r="1" gradientUnits="userSpaceOnUse" gradientTransform="translate(98.6507 87.6197) rotate(34.3143) scale(79.3002)">
<stop stop-color="white" stop-opacity="0.801593"/>
<stop offset="1" stop-color="#889AFF" stop-opacity="0.301884"/>
</radialGradient>
<radialGradient id="paint3_radial_0_101" cx="0" cy="0" r="1" gradientUnits="userSpaceOnUse" gradientTransform="translate(98.978 51.5883) rotate(70.2944) scale(51.5243 77.9421)">
<stop stop-color="white" stop-opacity="0.973411"/>
<stop offset="1" stop-color="white" stop-opacity="0.01"/>
</radialGradient>
</defs>
</svg>
